# xmcd CD database file
#
# Track frame offsets:
#	150
#	13872
#	27362
#	40697
#	55152
#	69127
#	84520
#	97717
#	110245
#	121952
#	133220
#	146157
#	157112
#	170970
#	184612
#	199097
#	211895
#	224947
#	238437
#	251397
#	265087
#	278982
#	291525
#	303607
#
# Disc length: 4227 seconds
#
# Revision: 0
# Processed by: cddbd v1.5.1PL0 Copyright (c) Steve Scherf et al.
# Submitted via: CDex 1.51
#
DISCID=7d108118
DTITLE=Sonny Boy Williamson I - Complete Recorded Works, Vol. 5 (1945-1947)
DYEAR=1992
DGENRE=Blues
TTITLE0=Early in the Morning
TTITLE1=The Big Boat
TTITLE2=Stop Breaking Down
TTITLE3=You're an Old Lady
TTITLE4=Sonny Boy's Cold Chills
TTITLE5=Mean Old Highway
TTITLE6=Hoodoo Hoodoo
TTITLE7=Shake the Boogie
TTITLE8=Mellow Chick Swing
TTITLE9=Polly Put Your Kettle On
TTITLE10=Lacey Belle
TTITLE11=Apple Tree Swing
TTITLE12=Wonderful Time
TTITLE13=Sugar Gal
TTITLE14=Willow Tree Gal
TTITLE15=Alcohol Blues
TTITLE16=Little Girl
TTITLE17=Blues About My Baby
TTITLE18=No Friends Blues
TTITLE19=I Love You for Myself
TTITLE20=Bring Another Half a Pint
TTITLE21=Southern Dream
TTITLE22=Rub a Dub
TTITLE23=Better Cut That Out
EXTD=YEAR: 1992
EXTT0=
EXTT1=
EXTT2=
EXTT3=
EXTT4=
EXTT5=
EXTT6=
EXTT7=
EXTT8=
EXTT9=
EXTT10=
EXTT11=
EXTT12=
EXTT13=
EXTT14=
EXTT15=
EXTT16=
EXTT17=
EXTT18=
EXTT19=
EXTT20=
EXTT21=
EXTT22=
EXTT23=
PLAYORDER=
